HIERARCHY
ROOT Hips
{
	OFFSET -3.958830 18.904000 13.208200
	CHANNELS 6 Xposition Yposition Zposition Zrotation Yrotation Xrotation 
	JOINT LHipJoint
	{
		OFFSET 0.000000 0.000000 0.000000
		CHANNELS 3 Zrotation Yrotation Xrotation
		JOINT LeftUpLeg
		{
			OFFSET 1.800000 -1.400000 0.085000
			CHANNELS 3 Zrotation Yrotation Xrotation
			JOINT LeftLeg
			{
				OFFSET 2.215000 -6.000000 0.000000
				CHANNELS 3 Zrotation Yrotation Xrotation
				JOINT LeftFoot
				{
					OFFSET 2.500000 -6.900000 0.000000
					CHANNELS 3 Zrotation Yrotation Xrotation
					JOINT LeftToeBase
					{
						OFFSET 0.200000 -0.500000 1.950000
						CHANNELS 3 Zrotation Yrotation Xrotation
						End Site
						{
							OFFSET 0.000000 0.000000 0.000000
						}
					}
				}
			}
		}
	}
	JOINT RHipJoint
	{
		OFFSET 0.000000 0.000000 0.000000
		CHANNELS 3 Zrotation Yrotation Xrotation
		JOINT RightUpLeg
		{
			OFFSET -1.800000 -1.400000 0.085000
			CHANNELS 3 Zrotation Yrotation Xrotation
			JOINT RightLeg
			{
				OFFSET -2.215000 -6.000000 0.000000
				CHANNELS 3 Zrotation Yrotation Xrotation
				JOINT RightFoot
				{
					OFFSET -2.500000 -6.900000 0.000000
					CHANNELS 3 Zrotation Yrotation Xrotation
					JOINT RightToeBase
					{
						OFFSET -0.200000 -0.500000 1.950000
						CHANNELS 3 Zrotation Yrotation Xrotation
						End Site
						{
							OFFSET 0.000000 0.000000 0.000000
						}
					}
				}
			}
		}
	}
	JOINT LowerBack
	{
		OFFSET 0.000000 0.000000 0.000000
		CHANNELS 3 Zrotation Yrotation Xrotation
		JOINT Spine
		{
			OFFSET -0.087000 1.940000 -0.288900
			CHANNELS 3 Zrotation Yrotation Xrotation
			JOINT Spine1
			{
				OFFSET 0.000000 1.950000 0.060000
				CHANNELS 3 Zrotation Yrotation Xrotation
				JOINT Neck
				{
					OFFSET 0.000000 0.000000 0.000000
					CHANNELS 3 Zrotation Yrotation Xrotation
					JOINT Neck1
					{
						OFFSET 0.000000 1.600000 0.340000
						CHANNELS 3 Zrotation Yrotation Xrotation
						JOINT Head
						{
							OFFSET 0.000000 1.667000 -0.240000
							CHANNELS 3 Zrotation Yrotation Xrotation
							End Site
							{
								OFFSET 0.000000 0.000000 0.000000
							}
						}
					}
				}
				JOINT LeftShoulder
				{
					OFFSET 0.000000 0.000000 0.000000
					CHANNELS 3 Zrotation Yrotation Xrotation
					JOINT LeftArm
					{
						OFFSET 2.700000 1.550000 -0.730000
						CHANNELS 3 Zrotation Yrotation Xrotation
						JOINT LeftForeArm
						{
							OFFSET 5.450000 0.000000 0.000000
							CHANNELS 3 Zrotation Yrotation Xrotation
							JOINT LeftHand
							{
								OFFSET 3.450000 0.000000 0.000000
								CHANNELS 3 Zrotation Yrotation Xrotation
								JOINT LeftHandIndex1
								{
									OFFSET 0.750000 0.000000 0.000000
									CHANNELS 3 Zrotation Yrotation Xrotation
									End Site
									{
										OFFSET 0.000000 0.000000 0.000000
									}
								}
							}
						}
					}
				}
				JOINT RightShoulder
				{
					OFFSET 0.000000 0.000000 0.000000
					CHANNELS 3 Zrotation Yrotation Xrotation
					JOINT RightArm
					{
						OFFSET -2.700000 1.550000 -0.730000
						CHANNELS 3 Zrotation Yrotation Xrotation
						JOINT RightForeArm
						{
							OFFSET -5.450000 0.000000 0.000000
							CHANNELS 3 Zrotation Yrotation Xrotation
							JOINT RightHand
							{
								OFFSET -3.450000 0.000000 0.000000
								CHANNELS 3 Zrotation Yrotation Xrotation
								JOINT RightHandIndex1
								{
									OFFSET -0.750000 0.000000 0.000000
									CHANNELS 3 Zrotation Yrotation Xrotation
									End Site
									{
										OFFSET 0.000000 0.000000 0.000000
									}
								}
							}
						}
					}
				}
			}
		}
	}
}
MOTION
Frames: 8
Frame Time: 0.016667
-0.771520 17.875730 2.752110 -7.544820 14.759171 -29.643816 -15.367183 14.189329 3.013513 3.360525 -6.030106 -10.574234 1.575162 6.174214 42.693017 -0.134535 7.365180 1.819561 0.362060 0.389130 0.219460 17.988509 -9.619797 3.885304 1.445765 4.736288 -39.989257 4.764048 -4.066814 19.050759 -0.239157 -1.630303 3.482597 0.246540 0.130780 0.177030 -3.103032 -4.192606 -8.324597 -2.838044 -6.526981 40.829915 -2.341038 -6.224843 14.182519 -0.346906 -1.767007 -16.497515 -10.713777 7.902169 59.482294 4.306360 3.877510 -20.781650 -20.035291 -32.979209 8.075270 -22.042525 -21.613511 -6.166801 9.392879 -22.192516 -3.510542 -3.520250 2.586208 0.831240 -0.142630 0.411400 0.080030 21.374754 31.897555 9.402193 40.188644 16.363816 -11.251278 13.339992 35.188849 0.650172 2.037304 -0.935521 -0.233540 0.527640 0.139230 -0.086110 
-0.746080 17.884530 2.682160 -8.586975 13.882299 -30.160329 -15.299215 14.084160 2.867989 3.935726 -5.782634 -10.477257 2.086983 5.896876 42.228073 -0.215311 7.263862 1.836313 0.389100 0.411380 0.235460 18.086556 -9.545216 4.101384 2.095930 5.655945 -42.485327 3.979416 -4.189679 21.502502 -0.268811 -1.814636 3.384818 0.277290 0.115780 0.189360 -3.320831 -3.959947 -8.330364 -0.118735 -7.721845 42.263627 -3.394265 -6.448640 15.121843 -0.080609 -2.282385 -16.493281 -11.739431 8.057020 58.137285 3.495530 3.552730 -22.061680 -18.660052 -33.990922 7.789960 -19.876985 -23.282033 -6.957953 10.958498 -23.049260 -3.980258 -3.528476 2.598461 0.842840 -0.146770 0.413070 0.072740 19.407158 32.888988 9.350495 37.963308 17.955597 -11.720503 13.085290 37.691304 0.786372 1.979628 -0.958187 -0.235970 0.526800 0.147190 -0.098040 
-0.693700 17.930780 2.531630 -10.500929 12.049108 -31.455754 -15.199471 13.913715 2.510707 5.304735 -4.946134 -9.394333 2.957635 5.504202 40.462964 -0.337574 6.990391 1.927523 0.396070 0.404330 0.249680 18.254077 -9.284169 4.663523 2.615666 7.992386 -47.801148 3.066513 -4.653225 27.376499 -0.364172 -2.447798 3.124794 0.291640 0.106190 0.195340 -3.647076 -3.626396 -8.371363 4.493111 -9.848235 46.095128 -4.799674 -6.807491 16.223013 0.552622 -3.170135 -17.147457 -13.663819 8.690716 56.661401 2.242630 3.177070 -23.674260 -16.641506 -36.441467 7.572858 -15.102099 -24.106273 -10.817775 16.212506 -27.765027 -6.077099 -3.503501 2.645901 0.867360 -0.154960 0.414010 0.057490 16.012054 35.429895 9.529651 31.583526 19.543495 -14.303811 12.002365 44.930410 1.097832 1.822171 -1.012069 -0.252040 0.542690 0.167620 -0.113690 
-0.623640 17.999230 2.364330 -13.043546 10.138854 -32.495336 -15.059097 13.496968 1.967368 7.322424 -3.870781 -7.998200 3.614100 5.157962 37.310379 -0.446943 6.500965 2.099641 0.386180 0.392000 0.209780 18.531503 -8.918267 5.484963 1.354815 11.156253 -55.450950 2.655647 -5.967384 37.204218 -0.594097 -3.980199 2.563316 0.282470 0.113060 0.198650 -4.166456 -2.934898 -8.424684 11.221914 -13.916114 50.280411 -7.646624 -7.844703 15.139767 1.183394 -5.004568 -16.527675 -17.763087 9.913820 53.818326 2.961650 1.853320 -25.485210 -14.096840 -37.559541 6.261690 -11.043079 -23.399910 -14.163386 22.005743 -35.412652 -9.253610 -3.510561 2.691069 0.869790 -0.178390 0.404870 0.053530 12.151513 36.569913 9.202150 25.366644 20.282686 -16.353517 11.223703 51.755257 1.729242 1.720046 -1.067144 -0.241760 0.547580 0.194740 -0.090710 
-0.534690 18.095650 2.212380 -15.023229 8.986205 -33.009833 -14.991854 13.030830 1.455733 8.633801 -2.844970 -6.417313 3.883728 4.935413 33.520767 -0.484800 5.953093 2.322942 0.351440 0.350010 0.157620 18.774600 -8.421352 6.313334 -4.143408 13.511841 -63.917453 6.490727 -10.132676 49.682522 -1.064811 -6.751374 1.642962 0.235800 0.127300 0.199420 -4.542627 -2.442732 -8.552988 17.204430 -18.206024 53.904046 -10.388883 -9.145682 13.233274 1.940596 -6.802046 -15.637895 -21.778461 10.944408 50.841071 3.732420 0.495250 -26.549660 -11.839502 -37.524342 5.385233 -7.630143 -21.550900 -16.194714 30.794687 -43.620910 -14.341006 -3.614613 2.669858 0.850640 -0.200910 0.391460 0.059330 8.317476 36.915898 8.439394 19.336367 20.031235 -18.338452 9.121223 59.193110 1.795171 1.668286 -1.129703 -0.218580 0.537170 0.207260 -0.051510 
-0.464810 18.196530 2.064760 -17.053093 7.468851 -32.004148 -14.947558 12.471889 0.987066 10.474062 -2.141261 -6.731278 3.614440 4.918850 30.254465 -0.557658 5.517258 2.505353 0.284360 0.273500 0.074580 19.014000 -7.841908 7.187441 -12.372343 14.984643 -73.306624 14.546021 -17.087008 58.676116 -1.661340 -9.732314 0.770007 0.191480 0.187500 0.196660 -4.876041 -1.934628 -8.737090 23.684568 -22.458306 55.334216 -13.339568 -9.667734 11.525407 2.688474 -8.378005 -14.284564 -24.515713 10.951559 46.759545 3.655870 -0.934940 -26.748360 -8.869097 -36.284779 4.626328 -3.833006 -20.053314 -16.711350 38.159882 -49.105485 -18.811626 -3.708519 2.587438 0.812480 -0.175160 0.335280 0.063110 3.741839 36.324253 6.960565 13.671178 19.700907 -19.781582 3.006743 65.321139 -0.618551 1.599142 -1.135872 -0.226950 0.545850 0.248810 -0.018880 
-0.404870 18.308680 1.944920 -18.523449 6.753952 -30.108765 -14.914352 11.866753 0.635338 11.892309 -1.745087 -7.908814 2.602630 5.047057 27.303763 -0.652411 5.193267 2.641266 0.180440 0.128940 -0.007780 19.228624 -7.290915 7.978551 -24.112059 12.448792 -81.479438 31.713300 -28.163179 59.329958 -2.397317 -12.571764 0.055250 0.126190 0.265830 0.209580 -5.176763 -1.403395 -8.958343 29.696729 -26.225747 54.495887 -16.975741 -9.705204 11.028057 3.747509 -9.391369 -13.604855 -26.112776 10.715055 44.051128 3.112210 -1.973200 -25.747740 -5.494990 -34.358226 4.769768 -1.276040 -17.565804 -17.260187 50.147329 -51.302292 -25.486896 -3.844637 2.451559 0.793980 -0.127270 0.265090 0.043370 -1.815334 34.979562 5.654281 10.032498 18.784271 -20.825433 -7.270842 68.607661 -6.091691 1.489660 -1.049069 -0.267230 0.548400 0.324150 -0.011230 
-0.386190 18.421660 1.838610 -19.289861 6.474731 -27.689029 -14.887279 11.331026 0.433057 12.944603 -1.410197 -10.054481 1.301720 5.230269 24.878418 -0.711921 4.879390 2.760875 0.144240 0.088700 -0.062890 19.399536 -6.894308 8.568791 -33.005794 8.332620 -86.688345 51.547247 -36.301937 51.967357 -2.790469 -13.377723 -0.048294 0.121470 0.317440 0.204030 -5.422315 -0.890191 -9.149617 34.531827 -28.309095 52.565956 -19.937112 -8.877776 11.121312 4.344309 -9.982497 -12.537712 -26.285575 9.622483 41.492606 3.062410 -2.945640 -24.114250 -2.902798 -31.418197 4.600659 0.648536 -16.374711 -16.809477 60.309169 -51.362513 -30.839755 -3.802897 2.308731 0.733340 -0.082060 0.199130 0.054360 -5.613331 32.579631 4.511231 6.917290 17.247548 -20.935515 -19.560771 69.546236 -12.828698 1.399157 -0.944858 -0.279750 0.536530 0.340660 0.005340 
